# xmcd
#
# Track frame offsets: 
#        150
#        12692
#        39979
#        58651
#        67648
#        88229
#        97507
#        115846
#        134988
#        158964
#
# Disc length: 2341 seconds
#
# Revision: 0
# Processed by: cddbd v1.5.2PL0 Copyright (c) Steve Scherf et al.
# Submitted via: ExactAudioCopy v0.99pb4
#
DISCID=8009230a
DTITLE=P.G. Six - Slightly Sorry
DYEAR=2007
DGENRE=Americana
TTITLE0=Untitled Micro Mini
TTITLE1=The Dance
TTITLE2=Strange Messages
TTITLE3=Cover Art Reprised
TTITLE4=The End Of Winter
TTITLE5=I've Been Traveling
TTITLE6=Bless These Blues
TTITLE7=Not I The Seed
TTITLE8=Lily Of The West
TTITLE9=Sweet Music
EXTD=
EXTT0=
EXTT1=
EXTT2=
EXTT3=
EXTT4=
EXTT5=
EXTT6=
EXTT7=
EXTT8=
EXTT9=
PLAYORDER=
